<svg width="23" height="23" viewBox="0 0 23 23" fill="none" xmlns="http://www.w3.org/2000/svg">
<path d="M11.2 0C5.0148 0 0 5.0148 0 11.2C0 16.4481 3.61387 20.8395 8.48587 22.0547C8.4336 21.9035 8.4 21.728 8.4 21.5105V19.5963C7.94547 19.5963 7.18387 19.5963 6.99253 19.5963C6.22627 19.5963 5.54493 19.2668 5.21453 18.6545C4.84773 17.9741 4.78427 16.9335 3.8752 16.2969C3.60547 16.0851 3.8108 15.8433 4.1216 15.876C4.6956 16.0384 5.1716 16.4323 5.6196 17.0165C6.06573 17.6017 6.27573 17.7343 7.1092 17.7343C7.51333 17.7343 8.11813 17.7109 8.68747 17.6213C8.9936 16.8439 9.5228 16.128 10.1696 15.7901C6.44 15.4065 4.66013 13.5511 4.66013 11.032C4.66013 9.94746 5.12213 8.8984 5.90707 8.01453C5.64947 7.1372 5.3256 5.348 6.006 4.66667C7.68413 4.66667 8.69867 5.75493 8.94227 6.04893C9.77853 5.7624 10.6969 5.6 11.662 5.6C12.6289 5.6 13.5511 5.7624 14.3892 6.0508C14.63 5.75867 15.6455 4.66667 17.3273 4.66667C18.0105 5.34893 17.6829 7.1456 17.4225 8.02107C18.2028 8.90307 18.662 9.94933 18.662 11.032C18.662 13.5492 16.8849 15.4037 13.1609 15.7892C14.1857 16.324 14.9333 17.8267 14.9333 18.9588V21.5105C14.9333 21.6076 14.9119 21.6776 14.9007 21.7607C19.2649 20.2309 22.4 16.0869 22.4 11.2C22.4 5.0148 17.3852 0 11.2 0Z" fill="#7F3A86"/>
</svg>
