<svg width="42" height="42" viewBox="0 0 42 42" fill="none" xmlns="http://www.w3.org/2000/svg">
<rect width="42" height="42" rx="5" fill="white"/>
<path d="M12.1076 25.5V33C12.1076 35.0707 17.8196 36.75 24.8663 36.75C31.9129 36.75 37.625 35.0707 37.625 33V25.5H12.1076Z" fill="#881421"/>
<path d="M12.1076 17.25V25.5C12.1076 27.5707 17.8196 29.25 24.8663 29.25C31.9129 29.25 37.625 27.5707 37.625 25.5V17.25H12.1076Z" fill="#AF2031"/>
<path d="M12.1076 9V17.25C12.1076 19.3208 17.8196 21 24.8663 21C31.9129 21 37.625 19.3208 37.625 17.25V9H12.1076Z" fill="#C94F60"/>
<path d="M24.8663 12.75C31.9127 12.75 37.625 11.0711 37.625 9C37.625 6.92893 31.9127 5.25 24.8663 5.25C17.8198 5.25 12.1076 6.92893 12.1076 9C12.1076 11.0711 17.8198 12.75 24.8663 12.75Z" fill="#E08095"/>
<path d="M21.5158 12H12.1076V30.75H21.5158C22.2975 30.7475 22.9306 30.1335 22.9331 29.3752V13.3748C22.9306 12.6165 22.2975 12.0025 21.5158 12Z" fill="#070707" fill-opacity="0.45"/>
<path d="M20.7425 12.75H12.1076V31.5H20.7425C21.5243 31.4975 22.1573 30.8835 22.1599 30.1252V14.1248C22.1573 13.3665 21.5243 12.7525 20.7425 12.75Z" fill="#070707" fill-opacity="0.45"/>
<path d="M20.7425 12.75H12.1076V30H20.7425C21.5243 29.9975 22.1573 29.3835 22.1599 28.6252V14.1248C22.1573 13.3665 21.5243 12.7525 20.7425 12.75Z" fill="#070707" fill-opacity="0.45"/>
<path d="M19.9693 12.75H12.1076V30H19.9692C20.751 29.9975 21.3841 29.3835 21.3866 28.6252V14.1248C21.3841 13.3665 20.751 12.7525 19.9693 12.75Z" fill="#070707" fill-opacity="0.45"/>
<path d="M5.79238 12.75H19.9693C20.7521 12.75 21.3866 13.3655 21.3866 14.1248L21.3866 27.8752C21.3866 28.6345 20.7521 29.25 19.9693 29.25H5.79238C5.00958 29.25 4.375 28.6345 4.375 27.8752V14.1248C4.375 13.3655 5.00958 12.75 5.79238 12.75Z" fill="url(#paint0_linear_132_938)"/>
<path d="M11.8624 16.5308H13.9502L17.3046 25.4685H15.3328L14.5936 23.337H11.1425L10.4165 25.4685H8.45703L11.8624 16.5308ZM14.1497 21.96L13.0772 18.7252C12.9895 18.4881 12.9238 18.2439 12.8808 17.9955H12.8422C12.8023 18.2508 12.7378 18.5019 12.6496 18.7455L11.5671 21.9615L14.1497 21.96Z" fill="white"/>
<defs>
<linearGradient id="paint0_linear_132_938" x1="10.1512" y1="3.19926" x2="30.1371" y2="39.737" gradientUnits="userSpaceOnUse">
<stop stop-color="#B72C3F"/>
<stop offset="0.5" stop-color="#B12334"/>
<stop offset="1" stop-color="#9D1623"/>
</linearGradient>
</defs>
</svg>
