<svg width="48" height="48" viewBox="0 0 48 48" fill="none" xmlns="http://www.w3.org/2000/svg">
<g clip-path="url(#clip0_17_13)">
<rect width="48" height="48" rx="5" fill="white"/>
<g filter="url(#filter0_d_17_13)">
<path d="M9.19195 12.9206C9.12025 10.8809 10.7243 9 12.8926 9H35.1102C37.2784 9 38.8825 10.8809 38.8108 12.9206C38.7419 14.8799 38.8314 17.418 39.4761 19.4875C40.1229 21.5634 41.2136 22.8755 43 23.0441V24.9559C41.2136 25.1245 40.1229 26.4366 39.4761 28.5125C38.8314 30.582 38.7419 33.1201 38.8108 35.0795C38.8825 37.1191 37.2784 39 35.1102 39H12.8926C10.7243 39 9.12025 37.1191 9.19202 35.0795C9.26082 33.1201 9.17139 30.582 8.52658 28.5125C7.87984 26.4366 6.78645 25.1245 5 24.9559V23.0441C6.78637 22.8755 7.87984 21.5634 8.52658 19.4875C9.17139 17.418 9.26082 14.8799 9.19195 12.9206Z" fill="url(#paint0_linear_17_13)"/>
<path d="M24.8241 31.9748C28.3344 31.9748 30.4497 30.272 30.4497 27.4634C30.4497 25.3404 28.9404 23.8034 26.6993 23.5601V23.4716C28.3458 23.2063 29.6379 21.6914 29.6379 19.9996C29.6379 17.5891 27.7169 16.0189 24.7898 16.0189H18.2036V31.9748H24.8241ZM20.7649 18.0424H24.1723C26.0247 18.0424 27.0766 18.8607 27.0766 20.3424C27.0766 21.9236 25.8532 22.8082 23.6349 22.8082H20.7649V18.0424ZM20.7649 29.9513V24.699H24.1494C26.5735 24.699 27.8312 25.5836 27.8312 27.3086C27.8312 29.0335 26.6078 29.9513 24.2981 29.9513H20.7649Z" fill="white"/>
<path d="M9.19195 12.9206C9.12025 10.8809 10.7243 9 12.8926 9H35.1102C37.2784 9 38.8825 10.8809 38.8108 12.9206C38.7419 14.8799 38.8314 17.418 39.4761 19.4875C40.1229 21.5634 41.2136 22.8755 43 23.0441V24.9559C41.2136 25.1245 40.1229 26.4366 39.4761 28.5125C38.8314 30.582 38.7419 33.1201 38.8108 35.0795C38.8825 37.1191 37.2784 39 35.1102 39H12.8926C10.7243 39 9.12025 37.1191 9.19202 35.0795C9.26082 33.1201 9.17139 30.582 8.52658 28.5125C7.87984 26.4366 6.78645 25.1245 5 24.9559V23.0441C6.78637 22.8755 7.87984 21.5634 8.52658 19.4875C9.17139 17.418 9.26082 14.8799 9.19195 12.9206Z" stroke="white"/>
<path d="M24.8241 31.9748C28.3344 31.9748 30.4497 30.272 30.4497 27.4634C30.4497 25.3404 28.9404 23.8034 26.6993 23.5601V23.4716C28.3458 23.2063 29.6379 21.6914 29.6379 19.9996C29.6379 17.5891 27.7169 16.0189 24.7898 16.0189H18.2036V31.9748H24.8241ZM20.7649 18.0424H24.1723C26.0247 18.0424 27.0766 18.8607 27.0766 20.3424C27.0766 21.9236 25.8532 22.8082 23.6349 22.8082H20.7649V18.0424ZM20.7649 29.9513V24.699H24.1494C26.5735 24.699 27.8312 25.5836 27.8312 27.3086C27.8312 29.0335 26.6078 29.9513 24.2981 29.9513H20.7649Z" stroke="white"/>
</g>
</g>
<defs>
<filter id="filter0_d_17_13" x="-11.5" y="-3.5" width="71" height="63" filterUnits="userSpaceOnUse" color-interpolation-filters="sRGB">
<feFlood flood-opacity="0" result="BackgroundImageFix"/>
<feColorMatrix in="SourceAlpha" type="matrix" values="0 0 0 0 0 0 0 0 0 0 0 0 0 0 0 0 0 0 127 0" result="hardAlpha"/>
<feOffset dy="4"/>
<feGaussianBlur stdDeviation="8"/>
<feColorMatrix type="matrix" values="0 0 0 0 0 0 0 0 0 0 0 0 0 0 0 0 0 0 0.15 0"/>
<feBlend mode="normal" in2="BackgroundImageFix" result="effect1_dropShadow_17_13"/>
<feBlend mode="normal" in="SourceGraphic" in2="effect1_dropShadow_17_13" result="shape"/>
</filter>
<linearGradient id="paint0_linear_17_13" x1="10.6465" y1="9.79397" x2="43.612" y2="36.2073" gradientUnits="userSpaceOnUse">
<stop stop-color="#9013FE"/>
<stop offset="1" stop-color="#6610F2"/>
</linearGradient>
<clipPath id="clip0_17_13">
<rect width="48" height="48" rx="5" fill="white"/>
</clipPath>
</defs>
</svg>
