<svg width="44" height="49" viewBox="0 0 44 49" fill="none" xmlns="http://www.w3.org/2000/svg">
<rect x="0.571838" width="42" height="42" rx="5" fill="white"/>
<path d="M8.61479 11.3055C8.55206 9.52077 9.95564 7.875 11.8528 7.875H31.2932C33.1904 7.875 34.594 9.52077 34.5313 11.3055C34.471 13.0199 34.5493 15.2408 35.1134 17.0516C35.6794 18.868 36.6338 20.0161 38.1968 20.1636V21.8364C36.6338 21.9839 35.6794 23.132 35.1134 24.9484C34.5493 26.7592 34.471 28.9801 34.5313 30.6945C34.594 32.4792 33.1904 34.125 31.2932 34.125H11.8528C9.95564 34.125 8.55206 32.4792 8.61486 30.6945C8.67506 28.9801 8.59681 26.7592 8.03259 24.9484C7.46669 23.132 6.50998 21.9839 4.94684 21.8364V20.1636C6.50991 20.0161 7.46669 18.868 8.03259 17.0516C8.59681 15.2408 8.67506 13.0199 8.61479 11.3055Z" fill="url(#paint0_linear_132_946)"/>
<g filter="url(#filter0_d_132_946)">
<path d="M22.2929 27.9779C25.3644 27.9779 27.2153 26.488 27.2153 24.0305C27.2153 22.1728 25.8947 20.828 23.9337 20.6151V20.5377C25.3744 20.3055 26.505 18.98 26.505 17.4997C26.505 15.3905 24.8242 14.0165 22.2629 14.0165H16.5V27.9779H22.2929ZM18.7411 15.7871H21.7227C23.3435 15.7871 24.2639 16.5031 24.2639 17.7996C24.2639 19.1832 23.1934 19.9571 21.2524 19.9571H18.7411V15.7871ZM18.7411 26.2074V21.6117H21.7026C23.8236 21.6117 24.9242 22.3857 24.9242 23.895C24.9242 25.4043 23.8537 26.2074 21.8327 26.2074H18.7411Z" fill="white"/>
<path d="M22.2929 27.9779C25.3644 27.9779 27.2153 26.488 27.2153 24.0305C27.2153 22.1728 25.8947 20.828 23.9337 20.6151V20.5377C25.3744 20.3055 26.505 18.98 26.505 17.4997C26.505 15.3905 24.8242 14.0165 22.2629 14.0165H16.5V27.9779H22.2929ZM18.7411 15.7871H21.7227C23.3435 15.7871 24.2639 16.5031 24.2639 17.7996C24.2639 19.1832 23.1934 19.9571 21.2524 19.9571H18.7411V15.7871ZM18.7411 26.2074V21.6117H21.7026C23.8236 21.6117 24.9242 22.3857 24.9242 23.895C24.9242 25.4043 23.8537 26.2074 21.8327 26.2074H18.7411Z" stroke="white"/>
</g>
<defs>
<filter id="filter0_d_132_946" x="0" y="1.51654" width="43.7153" height="46.9614" filterUnits="userSpaceOnUse" color-interpolation-filters="sRGB">
<feFlood flood-opacity="0" result="BackgroundImageFix"/>
<feColorMatrix in="SourceAlpha" type="matrix" values="0 0 0 0 0 0 0 0 0 0 0 0 0 0 0 0 0 0 127 0" result="hardAlpha"/>
<feOffset dy="4"/>
<feGaussianBlur stdDeviation="8"/>
<feColorMatrix type="matrix" values="0 0 0 0 0 0 0 0 0 0 0 0 0 0 0 0 0 0 0.15 0"/>
<feBlend mode="normal" in2="BackgroundImageFix" result="effect1_dropShadow_132_946"/>
<feBlend mode="normal" in="SourceGraphic" in2="effect1_dropShadow_132_946" result="shape"/>
</filter>
<linearGradient id="paint0_linear_132_946" x1="9.88752" y1="8.56972" x2="38.7323" y2="31.6814" gradientUnits="userSpaceOnUse">
<stop stop-color="#9013FE"/>
<stop offset="1" stop-color="#6610F2"/>
</linearGradient>
</defs>
</svg>
