<svg width="42" height="42" viewBox="0 0 42 42" fill="none" xmlns="http://www.w3.org/2000/svg">
<rect width="42" height="42" rx="5" fill="white"/>
<path d="M34.8875 29.3126C35.1111 28.911 35.25 28.4585 35.25 28.0522V13.9479C35.25 13.5416 35.1113 13.0892 34.8875 12.6876L21 21.0001L34.8875 29.3126Z" fill="#00599C"/>
<path d="M22.2341 37.3203L34.016 30.2682C34.3554 30.065 34.6639 29.7142 34.8875 29.3125L21 21.0001L7.11258 29.3126C7.3362 29.7142 7.64477 30.0651 7.98407 30.2682L19.766 37.3203C20.4447 37.7266 21.5554 37.7266 22.2341 37.3203Z" fill="#004482"/>
<path d="M34.8876 12.6875C34.6638 12.2858 34.3553 11.935 34.016 11.7318L22.2341 4.67974C21.5554 4.27342 20.4446 4.27342 19.7659 4.67974L7.98404 11.7318C7.30526 12.1381 6.74997 13.1353 6.74997 13.9479V28.0521C6.74997 28.4584 6.88884 28.9109 7.11255 29.3125L21 21L34.8876 12.6875Z" fill="#659AD2"/>
<path d="M21.0457 30.5C15.7822 30.5 11.5 26.2384 11.5 21C11.5 15.7617 15.7822 11.5 21.0457 11.5C24.3794 11.5 27.4926 13.2524 29.2164 16.0859L25.1284 18.5377C24.2647 17.124 22.7099 16.25 21.0457 16.25C18.4139 16.25 16.2728 18.3808 16.2728 21C16.2728 23.6191 18.4139 25.75 21.0457 25.75C22.7054 25.75 24.2562 24.8809 25.1214 23.4738L29.2181 25.9114C27.4946 28.7466 24.3805 30.5 21.0457 30.5Z" fill="white"/>
<path d="M29.3125 20.4001H28.125V19.2188H26.9376V20.4001H25.75V21.5814H26.9376V22.7628H28.125V21.5814H29.3125V20.4001Z" fill="white"/>
<path d="M34.0625 20.4063H32.875V19.2188H31.6876V20.4063H30.5V21.5937H31.6876V22.7813H32.875V21.5937H34.0625V20.4063Z" fill="white"/>
</svg>
