<svg width="42" height="42" viewBox="0 0 42 42" fill="none" xmlns="http://www.w3.org/2000/svg">
<rect width="42" height="42" rx="5" fill="white"/>
<path d="M34.8875 29.3126C35.1111 28.911 35.25 28.4585 35.25 28.0522V13.9479C35.25 13.5416 35.1113 13.0892 34.8875 12.6876L21 21.0001L34.8875 29.3126Z" fill="#7F3A86"/>
<path d="M22.2341 37.3203L34.016 30.2682C34.3554 30.065 34.6638 29.7142 34.8875 29.3125L21 21.0001L7.11255 29.3126C7.33617 29.7142 7.64474 30.0651 7.98404 30.2682L19.7659 37.3203C20.4446 37.7266 21.5554 37.7266 22.2341 37.3203Z" fill="#662579"/>
<path d="M34.8875 12.6875C34.6638 12.2858 34.3552 11.935 34.0159 11.7318L22.234 4.67974C21.5554 4.27342 20.4446 4.27342 19.7659 4.67974L7.98401 11.7318C7.30522 12.1381 6.74994 13.1353 6.74994 13.9479V28.0521C6.74994 28.4585 6.88881 28.9109 7.11252 29.3125L21 21L34.8875 12.6875Z" fill="#9A5196"/>
<path d="M21.0457 30.5C15.7822 30.5 11.5 26.2384 11.5 21C11.5 15.7617 15.7822 11.5 21.0457 11.5C24.3794 11.5 27.4926 13.2524 29.2164 16.0859L25.1284 18.5377C24.2647 17.124 22.7099 16.25 21.0457 16.25C18.4139 16.25 16.2728 18.3808 16.2728 21C16.2728 23.6191 18.4139 25.75 21.0457 25.75C22.7054 25.75 24.2562 24.8809 25.1214 23.4739L29.2181 25.9114C27.4946 28.7466 24.3805 30.5 21.0457 30.5Z" fill="white"/>
<path fill-rule="evenodd" clip-rule="evenodd" d="M31.6876 17.4376V18.6219H29.3124V17.4376H28.1251V18.6219H26.9375V19.8126H28.1251V22.1814H26.9375V23.3751H28.1251V24.5626H29.3124L29.3125 23.3751H31.6876V24.5626H32.8749V23.3751H34.0625V22.1875H32.8749V19.8126H34.0625V18.6219H32.8749V17.4376H31.6876ZM31.6876 22.1875V19.8126H29.3124V22.1814L31.6876 22.1875Z" fill="white"/>
</svg>
