<svg width="42" height="42" viewBox="0 0 42 42" fill="none" xmlns="http://www.w3.org/2000/svg">
<rect width="42" height="42" rx="5" fill="white"/>
<path d="M9.625 32.375C9.625 29.2339 12.1714 26.6875 15.3125 26.6875H21V32.375C21 35.5161 18.4536 38.0625 15.3125 38.0625C12.1714 38.0625 9.625 35.5161 9.625 32.375Z" fill="#24CB71"/>
<path d="M21 3.9375V15.3125H26.6875C29.8286 15.3125 32.375 12.7661 32.375 9.625C32.375 6.48391 29.8286 3.9375 26.6875 3.9375H21Z" fill="#FF7237"/>
<path d="M26.6401 26.6875C29.7812 26.6875 32.3276 24.1411 32.3276 21C32.3276 17.8589 29.7812 15.3125 26.6401 15.3125C23.499 15.3125 20.9526 17.8589 20.9526 21C20.9526 24.1411 23.499 26.6875 26.6401 26.6875Z" fill="#00B6FF"/>
<path d="M9.625 9.625C9.625 12.7661 12.1714 15.3125 15.3125 15.3125H21V3.9375H15.3125C12.1714 3.9375 9.625 6.48391 9.625 9.625Z" fill="#FF3737"/>
<path d="M9.625 21C9.625 24.1411 12.1714 26.6875 15.3125 26.6875H21V15.3125H15.3125C12.1714 15.3125 9.625 17.8589 9.625 21Z" fill="#874FFF"/>
</svg>
