<svg width="42" height="42" viewBox="0 0 42 42" fill="none" xmlns="http://www.w3.org/2000/svg">
<rect width="42" height="42" rx="5" fill="white"/>
<path d="M20.5514 13.4406C27.414 8.32607 23.8919 5 23.8919 5C24.416 10.2874 18.2214 11.5358 16.5609 15.1692C15.4279 17.6485 17.3368 19.8194 20.5491 22.5554C20.2651 21.9494 19.8271 21.3606 19.3837 20.7645C17.8714 18.7313 16.2959 16.6132 20.5514 13.4406Z" fill="#E76F00"/>
<path d="M21.6469 23.677C21.6469 23.677 23.7116 22.0779 22.0765 20.3008C16.534 14.2719 28.1384 11.5358 28.1384 11.5358C21.0534 14.8125 22.1112 16.7574 23.8919 19.1202C25.7986 21.6538 21.6469 23.677 21.6469 23.677Z" fill="#E76F00"/>
<path d="M27.7261 28.4456C34.0857 25.3258 31.1453 22.3278 29.0929 22.7317C28.5898 22.8305 28.3655 22.9162 28.3655 22.9162C28.3655 22.9162 28.5523 22.64 28.909 22.5204C32.9693 21.1729 36.0919 26.4949 27.5983 28.6028C27.5983 28.6029 27.6967 28.5198 27.7261 28.4456Z" fill="#5382A1"/>
<path d="M14.4927 24.4969C10.5137 23.9953 16.6744 22.6139 16.6744 22.6139C16.6744 22.6139 14.282 22.4616 11.3395 23.8043C7.86018 25.3932 19.9459 26.1158 26.202 24.5625C26.8525 24.1432 27.7515 23.7798 27.7515 23.7798C27.7515 23.7798 25.1914 24.2114 22.6418 24.4145C19.5221 24.6612 16.1728 24.7093 14.4927 24.4969Z" fill="#5382A1"/>
<path d="M16.0066 27.4758C13.7877 27.2592 15.2406 26.2439 15.2406 26.2439C9.49894 28.0429 18.4352 30.083 26.4582 27.8683C25.6054 27.5844 25.0631 27.0654 25.0631 27.0654C21.142 27.7781 18.876 27.7553 16.0066 27.4758Z" fill="#5382A1"/>
<path d="M16.9734 30.6992C14.7562 30.4585 16.0516 29.7474 16.0516 29.7474C10.8395 31.1222 19.2218 33.9625 25.8576 31.2777C24.7707 30.8787 23.9925 30.4181 23.9925 30.4181C21.0324 30.947 19.6595 30.9884 16.9734 30.6992Z" fill="#5382A1"/>
<path d="M30.8528 32.3388C30.8528 32.3388 31.8113 33.0844 29.797 33.6613C25.9668 34.7566 13.8551 35.0874 10.4906 33.7049C9.28108 33.2082 11.5492 32.5189 12.2627 32.3742C13.0067 32.2219 13.4319 32.2503 13.4319 32.2503C12.0869 31.3558 4.73801 34.0067 9.69907 34.7659C23.2286 36.8372 34.3621 33.8332 30.8528 32.3388Z" fill="#5382A1"/>
<path d="M33 33.9679C32.778 36.6947 23.4039 37.2683 17.2994 36.8994C13.317 36.6583 12.5189 36.0558 12.5072 36.047C16.3186 36.6402 22.7447 36.7482 27.955 35.8226C32.5732 35.0016 33 33.9679 33 33.9679Z" fill="#5382A1"/>
</svg>
