<svg width="42" height="42" viewBox="0 0 42 42" fill="none" xmlns="http://www.w3.org/2000/svg">
<rect width="42" height="42" rx="5" fill="white"/>
<rect x="4.92188" y="4.92188" width="32.1562" height="32.1562" rx="3" fill="#FFCA28"/>
<path d="M24.4453 31.6663L26.8129 30.0997C26.9984 30.6826 28.1733 32.067 29.6575 32.067C31.1416 32.067 31.8306 31.2564 31.8306 30.719C31.8306 29.2546 30.3152 28.7382 29.5873 28.4902C29.4686 28.4498 29.3709 28.4165 29.3041 28.3874C29.2698 28.3725 29.218 28.3527 29.1515 28.3272C28.3419 28.0179 25.3552 26.8769 25.3552 23.5692C25.3552 19.926 28.8712 19.507 29.6663 19.507C30.1865 19.507 32.6876 19.5708 33.9332 21.9115L31.6363 23.5146C31.1328 22.4945 30.2961 22.1575 29.7811 22.1575C28.509 22.1575 28.244 23.0901 28.244 23.5146C28.244 24.7057 29.6261 25.2396 30.7931 25.6904C31.0984 25.8084 31.389 25.9206 31.6363 26.0375C32.9084 26.6386 34.7812 27.6223 34.7812 30.719C34.7812 32.2701 33.4803 34.7812 30.2052 34.7812C25.8058 34.7812 24.6397 32.1399 24.4453 31.6663Z" fill="#372424"/>
<path d="M12.9609 31.9774L15.4286 30.4116C15.6219 30.9942 16.3732 32.0684 17.4634 32.0684C18.5536 32.0684 19.1116 30.9487 19.1116 30.4116V19.8516H22.1464V30.4116C22.1955 31.8681 21.3877 34.7812 17.8225 34.7812C14.5446 34.7812 13.1819 32.8331 12.9609 31.9774Z" fill="#372424"/>
</svg>
