<svg width="42" height="42" viewBox="0 0 42 42" fill="none" xmlns="http://www.w3.org/2000/svg">
<rect width="42" height="42" rx="5" fill="white"/>
<path d="M22.4205 4.72973C21.5605 4.25569 20.4395 4.25782 19.5788 4.72973C15.2681 7.06144 10.9573 9.39386 6.64588 11.7245C5.80693 12.1571 5.24108 13.0402 5.25011 13.9567V28.0452C5.24405 28.9796 5.83908 29.8712 6.69966 30.2979C7.93806 30.9437 9.14122 31.655 10.402 32.2578C11.8583 32.9592 13.6804 33.1143 15.1546 32.3828C16.3512 31.7765 16.8827 30.4282 16.8812 29.189C16.8908 24.5394 16.8827 19.8898 16.8849 15.2402C16.9133 15.0335 16.7551 14.8127 16.5251 14.8177C15.9742 14.8091 15.4226 14.8127 14.8717 14.8162C14.6635 14.7969 14.4604 14.9664 14.4761 15.1715C14.4687 19.7911 14.4776 24.4121 14.4716 29.0325C14.4836 29.6716 14.0431 30.2858 13.4147 30.5017C11.9634 31.0003 7.82086 28.364 7.82086 28.364C7.66884 28.2949 7.5723 28.1333 7.5872 27.9728C7.5872 23.3247 7.58794 18.6764 7.5872 14.029C7.5663 13.8416 7.68412 13.6729 7.85968 13.5964C12.1562 11.2784 16.4504 8.95464 20.7469 6.63524C20.8961 6.53762 21.1042 6.53791 21.2531 6.63595C25.5496 8.95464 29.8446 11.2763 34.1418 13.5944C34.318 13.6708 34.4307 13.8423 34.4128 14.029C34.4121 18.6764 34.4143 23.3247 34.4113 27.9721C34.4241 28.1366 34.3374 28.296 34.1806 28.3682C29.9243 30.6736 25.6194 32.9047 21.4016 35.277C21.2176 35.3805 21.0091 35.4977 20.8029 35.3837C19.6937 34.7824 18.598 34.1576 17.4925 33.5505C17.3723 33.4769 17.2193 33.4454 17.0939 33.5276C16.5982 33.7836 16.1321 33.991 15.5629 34.2118C14.7634 34.522 14.8912 34.6489 15.6121 35.0606C16.905 35.7777 18.2 36.492 19.4928 37.2099C20.3439 37.7305 21.4875 37.7675 22.366 37.2864C26.6774 34.9577 30.9874 32.6261 35.2996 30.2973C36.158 29.8683 36.756 28.9802 36.7499 28.0451V13.9567C36.7582 13.0588 36.214 12.1914 35.4004 11.7525C31.0747 9.40937 26.7469 7.07139 22.4205 4.72973Z" fill="#8CC84B"/>
<path d="M28.9257 15.3074C27.2336 14.4201 25.2205 14.3728 23.3401 14.4888C21.9816 14.6203 20.5529 14.9878 19.5631 15.9423C18.5479 16.9018 18.327 18.4512 18.8092 19.7039C19.1547 20.589 20.0245 21.1646 20.9239 21.4691C22.0825 21.8699 23.2994 21.9939 24.5166 22.1179C25.6269 22.231 26.7375 22.3441 27.8046 22.6675C28.2405 22.8091 28.7482 23.0257 28.8817 23.4905C29.005 24.041 28.8698 24.681 28.4138 25.0635C26.9652 26.1872 22.9359 26.015 21.5047 25.1306C20.9261 24.7538 20.6767 24.0867 20.5754 23.4512C20.5641 23.2531 20.4014 23.0714 20.182 23.0864C19.6326 23.08 19.0831 23.0815 18.5337 23.0857C18.342 23.07 18.1427 23.2037 18.1322 23.3954C18.0193 26.3068 20.7472 27.576 23.3066 27.8555C24.7689 27.992 26.2632 27.9842 27.7031 27.6766C28.7855 27.4351 29.8707 26.9903 30.6159 26.1731C31.5347 25.18 31.7153 23.7014 31.3032 22.4644C30.9882 21.5414 30.088 20.9493 29.1677 20.6447C27.9162 20.2241 26.433 19.998 25.2995 19.8922C23.6519 19.7384 21.694 19.8012 21.2278 18.7401C21.0418 18.1844 21.2001 17.4945 21.721 17.1528C23.0994 16.2363 25.9046 16.358 27.3321 17.0426C27.9876 17.3644 28.3674 18.025 28.5242 18.6921C28.5532 18.8881 28.6877 19.0925 28.9192 19.084C29.4647 19.0946 30.0104 19.0868 30.556 19.0875C30.7434 19.1004 30.9487 18.9967 30.9853 18.8086C30.9621 17.4145 30.2358 15.9874 28.9257 15.3074Z" fill="#8CC84B"/>
</svg>
