<svg width="42" height="43" viewBox="0 0 42 43" fill="none" xmlns="http://www.w3.org/2000/svg">
<rect width="42" height="42" rx="5" fill="white"/>
<path fill-rule="evenodd" clip-rule="evenodd" d="M17.377 5C14.7092 5 12.5464 7.09407 12.5464 9.67725V12.9153H20.9071V13.8148H8.8306C6.16273 13.8148 4 15.9089 4 18.4921L4 25.5079C4 28.0911 6.16273 30.1852 8.8306 30.1852H11.6175V26.2275C11.6175 23.6443 13.7802 21.5503 16.4481 21.5503H25.3661C27.6235 21.5503 29.4535 19.7783 29.4535 17.5926V9.67725C29.4535 7.09407 27.2908 5 24.6229 5H17.377ZM16.2623 10.7566C17.1858 10.7566 17.9344 10.0317 17.9344 9.13756C17.9344 8.24339 17.1858 7.51852 16.2623 7.51852C15.3388 7.51852 14.5902 8.24339 14.5902 9.13756C14.5902 10.0317 15.3388 10.7566 16.2623 10.7566Z" fill="url(#paint0_linear_132_902)"/>
<path fill-rule="evenodd" clip-rule="evenodd" d="M24.6229 39C27.2908 39 29.4535 36.906 29.4535 34.3228V31.0847L21.0929 31.0847L21.0929 30.1852H33.1694C35.8373 30.1852 38 28.0912 38 25.508V18.4921C38 15.909 35.8373 13.8149 33.1694 13.8149L30.3825 13.8149V17.7725C30.3825 20.3557 28.2198 22.4498 25.5519 22.4498L16.6339 22.4498C14.3765 22.4498 12.5464 24.2217 12.5464 26.4075L12.5464 34.3228C12.5464 36.906 14.7092 39 17.377 39H24.6229ZM25.7377 33.2434C24.8142 33.2434 24.0656 33.9683 24.0656 34.8625C24.0656 35.7567 24.8142 36.4815 25.7377 36.4815C26.6612 36.4815 27.4098 35.7567 27.4098 34.8625C27.4098 33.9683 26.6612 33.2434 25.7377 33.2434Z" fill="url(#paint1_linear_132_902)"/>
<defs>
<linearGradient id="paint0_linear_132_902" x1="16.7268" y1="5" x2="16.7268" y2="30.1852" gradientUnits="userSpaceOnUse">
<stop stop-color="#327EBD"/>
<stop offset="1" stop-color="#1565A7"/>
</linearGradient>
<linearGradient id="paint1_linear_132_902" x1="25.2732" y1="13.8149" x2="25.2732" y2="39" gradientUnits="userSpaceOnUse">
<stop stop-color="#FFDA4B"/>
<stop offset="1" stop-color="#F9C600"/>
</linearGradient>
</defs>
</svg>
