<svg width="42" height="42" viewBox="0 0 42 42" fill="none" xmlns="http://www.w3.org/2000/svg">
<rect width="42" height="42" rx="5" fill="white"/>
<path d="M23.9691 20.9733C23.9691 19.3835 22.6399 18.0945 21 18.0945C19.3603 18.0945 18.0309 19.3835 18.0309 20.9733C18.0309 22.5633 19.3603 23.8522 21 23.8522C22.6399 23.8522 23.9691 22.5633 23.9691 20.9733Z" fill="#53C1DE"/>
<path fill-rule="evenodd" clip-rule="evenodd" d="M30.6429 15.6287C31.2699 13.1583 32.0581 8.57723 29.2797 7.0241C26.5143 5.47774 22.9157 8.44085 21.0155 10.2195C19.1207 8.45857 15.421 5.50813 12.645 7.06619C9.88065 8.61774 10.7331 13.1229 11.374 15.6087C8.79538 16.3189 4.375 17.8484 4.375 20.9733C4.375 24.0894 8.79078 25.7534 11.3542 26.4629C10.7109 28.9625 9.9011 33.4033 12.669 34.9513C15.4553 36.5091 19.1436 33.6289 21.0614 31.8309C22.9738 33.6199 26.5379 36.519 29.3038 34.9666C32.0785 33.4093 31.3558 28.8896 30.7149 26.3892C33.1997 25.6783 37.625 24.0505 37.625 20.9733C37.625 17.8784 33.1809 16.3364 30.6429 15.6287ZM30.328 25.0642C29.9071 23.7726 29.3391 22.3991 28.6443 20.9802C29.3075 19.5948 29.8534 18.2389 30.2625 16.9556C32.1231 17.4786 36.2047 18.6739 36.2047 20.9733C36.2047 23.2942 32.288 24.5009 30.328 25.0642ZM28.592 33.7747C26.5284 34.9329 23.4629 32.1605 22.0505 30.843C22.9874 29.8494 23.9238 28.6943 24.8376 27.4117C26.4451 27.2734 27.9637 27.0473 29.3409 26.7387C29.792 28.5072 30.6649 32.6112 28.592 33.7747ZM13.3787 33.7581C11.3147 32.6043 12.2581 28.6416 12.7314 26.8003C14.0932 27.0924 15.6008 27.3025 17.2121 27.4292C18.132 28.6843 19.0954 29.838 20.0663 30.8483C18.8667 31.9734 15.4523 34.9174 13.3787 33.7581ZM5.79532 20.9733C5.79532 18.6437 9.85246 17.457 11.7554 16.9353C12.1716 18.2475 12.7174 19.6195 13.376 21.0068C12.7088 22.4149 12.1553 23.8087 11.7353 25.1363C9.92076 24.6327 5.79532 23.3044 5.79532 20.9733ZM13.3566 8.2581C15.429 7.09504 18.6445 9.92757 20.0201 11.2025C19.0542 12.2082 18.0996 13.3532 17.1877 14.601C15.6239 14.7415 14.1269 14.9673 12.7508 15.2696C12.2345 13.2646 11.2865 9.41991 13.3566 8.2581ZM25.8537 16.098C26.9146 16.2278 27.931 16.4004 28.8855 16.6117C28.599 17.5022 28.2418 18.4333 27.8213 19.3878C27.2115 18.266 26.5571 17.167 25.8537 16.098ZM21.0159 12.1867C21.671 12.8748 22.3272 13.6432 22.9726 14.4769C21.6634 14.4169 20.352 14.4166 19.0427 14.476C19.6887 13.6501 20.3505 12.8828 21.0159 12.1867ZM14.191 19.3868C13.7773 18.4355 13.4234 17.5003 13.1344 16.5972C14.0831 16.3913 15.0948 16.2231 16.1488 16.0954C15.4435 17.162 14.7901 18.2607 14.191 19.3868ZM16.1791 25.9495C15.0902 25.8317 14.0632 25.672 13.1148 25.4718C13.4084 24.5527 13.7701 23.5974 14.1926 22.6258C14.8 23.7634 15.4633 24.8728 16.1791 25.9495ZM21.0552 29.8573C20.382 29.1529 19.7105 28.3739 19.0546 27.5359C20.3714 27.5861 21.6907 27.5862 23.0072 27.5292C22.3597 28.3824 21.7059 29.1626 21.0552 29.8573ZM27.8348 22.5763C28.2792 23.5584 28.6538 24.5086 28.9514 25.4122C27.9872 25.6255 26.9464 25.7973 25.8497 25.9248C26.5583 24.8356 27.2231 23.7194 27.8348 22.5763ZM24.0449 26.0918C22.0309 26.2313 20.0042 26.2298 17.9896 26.1032C16.8447 24.4818 15.8257 22.7766 14.946 21.0064C15.8214 19.2398 16.8331 17.5381 17.9725 15.9192C19.9887 15.7714 22.0173 15.7711 24.0334 15.92C25.163 17.5388 26.1732 19.2362 27.0689 20.9869C26.1838 22.7526 25.1668 24.4578 24.0449 26.0918ZM28.5703 8.21715C30.6432 9.3764 29.7205 13.4936 29.2676 15.2838C27.8882 14.9752 26.3902 14.7455 24.8218 14.6029C23.9082 13.3415 22.9615 12.1945 22.0112 11.2018C23.4046 9.89939 26.5174 7.06924 28.5703 8.21715Z" fill="#53C1DE"/>
</svg>
