<svg width="42" height="42" viewBox="0 0 42 42" fill="none" xmlns="http://www.w3.org/2000/svg">
<rect width="42" height="42" rx="5" fill="white"/>
<path d="M29.4099 33.9258C25.5198 36.204 20.1711 36.4381 14.7899 34.0999C10.4328 32.2205 6.81753 28.9308 4.5 25.1721C5.61242 26.1118 6.91022 26.8639 8.3007 27.5213C13.858 30.162 19.4141 29.9812 23.3241 27.5281C17.762 23.2049 13.0285 17.5592 9.50598 12.9546C8.76406 12.2026 8.20785 11.2628 7.65164 10.417C11.9159 14.3642 18.6833 19.3448 21.093 20.7552C15.9952 15.3038 11.4525 8.53764 11.6375 8.72524C19.7027 16.9956 27.2119 21.6949 27.2119 21.6949C27.4603 21.8368 27.652 21.9551 27.8062 22.0608C27.9688 21.6416 28.1113 21.2064 28.2313 20.7552C29.5291 15.9621 28.0463 10.5108 24.8014 6C32.3098 10.605 36.76 19.251 34.9054 26.4879C34.857 26.6831 34.8045 26.8758 34.7478 27.0651C38.4553 31.7643 37.501 36.8261 37.0375 35.8864C35.0262 31.8961 31.3028 33.1163 29.4099 33.9258Z" fill="url(#paint0_linear_132_873)"/>
<defs>
<linearGradient id="paint0_linear_132_873" x1="20.5121" y1="6" x2="20.5121" y2="36.0016" gradientUnits="userSpaceOnUse">
<stop stop-color="#F88A36"/>
<stop offset="1" stop-color="#FD2020"/>
</linearGradient>
</defs>
</svg>
