<svg width="48" height="48" viewBox="0 0 48 48" fill="none" xmlns="http://www.w3.org/2000/svg">
<rect width="48" height="48" rx="5" fill="white"/>
<path fill-rule="evenodd" clip-rule="evenodd" d="M24 13C18.9327 13 15.7673 15.4438 14.5 20.3333C16.4 17.8895 18.6173 16.9728 21.15 17.5833C22.5959 17.9319 23.6295 18.9445 24.7714 20.0641C26.6353 21.8882 28.7918 24 33.5 24C38.5673 24 41.7327 21.5562 43 16.6667C41.1 19.1105 38.8846 20.0272 36.35 19.4167C34.9041 19.0681 33.8705 18.0555 32.7267 16.9359C30.8647 15.11 28.7101 13 24 13ZM14.5 24C9.4327 24 6.2673 26.4438 5 31.3333C6.9 28.8877 9.1173 27.9728 11.65 28.5833C13.0959 28.9319 14.1295 29.9445 15.2733 31.0641C17.1353 32.8882 19.2918 35 24.0019 35C29.0692 35 32.2346 32.5562 33.5019 27.6667C31.6019 30.1105 29.3846 31.0272 26.8519 30.4167C25.406 30.0681 24.3724 29.0555 23.2305 27.9359C21.3647 26.1118 19.2082 24 14.5 24Z" fill="#00BCFF"/>
</svg>
