<svg width="42" height="42" viewBox="0 0 42 42" fill="none" xmlns="http://www.w3.org/2000/svg">
<rect width="42" height="42" rx="5" fill="white"/>
<rect x="5" y="5" width="32.1562" height="32.1562" rx="3" fill="#3178C6"/>
<path fill-rule="evenodd" clip-rule="evenodd" d="M25.071 30.9542V34.1909C25.5989 34.4605 26.2233 34.6628 26.9441 34.7976C27.665 34.9326 28.4247 35 29.2233 35C30.0017 35 30.7411 34.9259 31.4415 34.7775C32.1422 34.6292 32.7562 34.3848 33.2843 34.0442C33.8121 33.7035 34.2301 33.2586 34.5381 32.7089C34.846 32.1595 35 31.4801 35 30.6709C35 30.0843 34.9119 29.5701 34.7361 29.1284C34.56 28.6868 34.3063 28.294 33.9745 27.9501C33.643 27.6062 33.2453 27.2977 32.7818 27.0246C32.3181 26.7515 31.7953 26.4936 31.2131 26.2508C30.7868 26.0755 30.4044 25.9053 30.066 25.7401C29.7275 25.5749 29.4399 25.4063 29.203 25.2343C28.9661 25.0624 28.7834 24.8803 28.6548 24.6881C28.5262 24.496 28.4619 24.2785 28.4619 24.0357C28.4619 23.8132 28.5194 23.6126 28.6345 23.4339C28.7496 23.2552 28.912 23.1018 29.1218 22.9737C29.3316 22.8456 29.5888 22.7461 29.8934 22.6753C30.1979 22.6045 30.5364 22.5691 30.9086 22.5691C31.1794 22.5691 31.4652 22.5893 31.7665 22.6298C32.0676 22.6703 32.3706 22.7326 32.6751 22.8169C32.9797 22.9012 33.2757 23.0074 33.5635 23.1355C33.8512 23.2637 34.1167 23.412 34.3604 23.5806V20.5563C33.8663 20.3675 33.3266 20.2276 32.7411 20.1365C32.1557 20.0455 31.484 20 30.7259 20C29.9543 20 29.2233 20.0826 28.533 20.2478C27.8426 20.413 27.2352 20.6709 26.7106 21.0216C26.1861 21.3722 25.7715 21.8189 25.467 22.3618C25.1624 22.9046 25.0101 23.5536 25.0101 24.3088C25.0101 25.2731 25.2893 26.0957 25.8477 26.7768C26.4061 27.4579 27.2538 28.0344 28.3908 28.5064C28.8375 28.6885 29.2538 28.8672 29.6396 29.0425C30.0254 29.2178 30.3587 29.3999 30.6396 29.5887C30.9205 29.7775 31.142 29.9831 31.3044 30.2057C31.4671 30.4282 31.5481 30.681 31.5481 30.9643C31.5481 31.1734 31.4975 31.3672 31.396 31.5458C31.2944 31.7245 31.1404 31.8795 30.934 32.0111C30.7276 32.1426 30.4704 32.2455 30.1624 32.3196C29.8545 32.3937 29.4941 32.4308 29.0812 32.4308C28.3773 32.4308 27.6802 32.3078 26.9898 32.0616C26.2994 31.8156 25.6599 31.4464 25.071 30.9542ZM19.5976 22.8972H23.8485V20.2308H12V22.8972H16.2301V34.7692H19.5976V22.8972Z" fill="white"/>
</svg>
