<svg width="42" height="42" viewBox="0 0 42 42" fill="none" xmlns="http://www.w3.org/2000/svg">
<rect width="42" height="42" rx="5" fill="white"/>
<path d="M12.8278 31.9349L6.13622 28.5008L6.07387 28.4696C5.06597 27.9553 4.375 26.9058 4.375 25.6953V15.3047C4.375 14.0942 5.06597 13.0447 6.07387 12.5304L6.13622 12.4992L12.8278 9.06511C11.8199 9.58465 11.1289 10.6289 11.1289 11.8394V29.1606C11.1289 30.3711 11.8199 31.4153 12.8278 31.9349Z" fill="url(#paint0_linear_132_891)"/>
<path d="M35.7079 8.96121C35.3391 8.81054 34.9338 8.72222 34.5078 8.72222C33.4687 8.72222 32.5492 9.23136 31.9829 10.0107L31.9725 10.0262L24.3769 20.5L19.218 27.6124L16.7814 30.9737L16.771 30.9893C16.2047 31.7686 15.2852 32.2778 14.2461 32.2778C13.7473 32.2778 13.2746 32.1583 12.8537 31.9505C12.8434 31.9453 12.833 31.9401 12.8278 31.9349L6.13622 28.5008C6.54665 28.6982 7.00902 28.8125 7.49219 28.8125C8.5884 28.8125 9.54953 28.2462 10.1054 27.3942L14.589 20.5L19.218 13.3876L23.5821 6.68047C24.138 5.82324 25.0991 5.26215 26.1953 5.26215C26.6213 5.26215 27.0266 5.34527 27.3954 5.50113L35.7079 8.96121Z" fill="url(#paint1_linear_132_891)"/>
<path d="M35.7079 8.96121C35.3391 8.81054 34.9338 8.72222 34.5078 8.72222C33.4687 8.72222 32.5492 9.23136 31.9829 10.0107L31.9725 10.0262L24.3769 20.5L19.218 27.6124L16.7814 30.9737L16.771 30.9893C16.2047 31.7686 15.2852 32.2778 14.2461 32.2778C13.7473 32.2778 13.2746 32.1583 12.8537 31.9505C12.8434 31.9453 12.833 31.9401 12.8278 31.9349L6.13622 28.5008C6.54665 28.6982 7.00902 28.8125 7.49219 28.8125C8.5884 28.8125 9.54953 28.2462 10.1054 27.3942L14.589 20.5L19.218 13.3876L23.5821 6.68047C24.138 5.82324 25.0991 5.26215 26.1953 5.26215C26.6213 5.26215 27.0266 5.34527 27.3954 5.50113L35.7079 8.96121Z" fill="url(#paint2_linear_132_891)" fill-opacity="0.3"/>
<path d="M35.7079 32.0388L27.3954 35.4989C27.0266 35.6547 26.6213 35.7378 26.1953 35.7378C25.0991 35.7378 24.138 35.1768 23.5821 34.3195L19.218 27.6124L14.589 20.5L10.1054 13.6058C9.54953 12.7538 8.5884 12.1875 7.49219 12.1875C7.00902 12.1875 6.54665 12.3018 6.13622 12.4992L12.8278 9.06511C12.833 9.05992 12.8434 9.05474 12.8537 9.04954C13.2746 8.84173 13.7473 8.72224 14.2461 8.72224C15.2852 8.72224 16.2047 9.23138 16.771 10.0107L16.7814 10.0263L19.218 13.3876L24.3769 20.5L31.9725 30.9737L31.9829 30.9893C32.5492 31.7686 33.4687 32.2778 34.5078 32.2778C34.9338 32.2778 35.3391 32.1894 35.7079 32.0388Z" fill="url(#paint3_linear_132_891)"/>
<path d="M35.7079 32.0388L27.3954 35.4989C27.0266 35.6547 26.6213 35.7378 26.1953 35.7378C25.0991 35.7378 24.138 35.1768 23.5821 34.3195L19.218 27.6124L14.589 20.5L10.1054 13.6058C9.54953 12.7538 8.5884 12.1875 7.49219 12.1875C7.00902 12.1875 6.54665 12.3018 6.13622 12.4992L12.8278 9.06511C12.833 9.05992 12.8434 9.05474 12.8537 9.04954C13.2746 8.84173 13.7473 8.72224 14.2461 8.72224C15.2852 8.72224 16.2047 9.23138 16.771 10.0107L16.7814 10.0263L19.218 13.3876L24.3769 20.5L31.9725 30.9737L31.9829 30.9893C32.5492 31.7686 33.4687 32.2778 34.5078 32.2778C34.9338 32.2778 35.3391 32.1894 35.7079 32.0388Z" fill="url(#paint4_radial_132_891)"/>
<path d="M37.625 11.8394V29.1606C37.625 30.4542 36.8353 31.566 35.7079 32.0388L27.3954 35.4989C28.5228 35.0313 29.3125 33.9195 29.3125 32.6207V8.37935C29.3125 7.08052 28.5228 5.96871 27.3954 5.50113L35.7079 8.96121C36.8353 9.43398 37.625 10.5458 37.625 11.8394Z" fill="url(#paint5_linear_132_891)"/>
<defs>
<linearGradient id="paint0_linear_132_891" x1="-8.0071" y1="35.7378" x2="12.3749" y2="3.72545" gradientUnits="userSpaceOnUse">
<stop offset="0.0725439" stop-color="#85148A"/>
<stop offset="0.296162" stop-color="#7F21A9"/>
<stop offset="0.661273" stop-color="#5B2AB5"/>
<stop offset="0.854932" stop-color="#4B20A0"/>
</linearGradient>
<linearGradient id="paint1_linear_132_891" x1="26.5547" y1="4.09" x2="10.4589" y2="37.8594" gradientUnits="userSpaceOnUse">
<stop stop-color="#4B20A0"/>
<stop offset="0.265936" stop-color="#6D37CD"/>
<stop offset="0.7848" stop-color="#7A41DC"/>
<stop offset="1" stop-color="#CA59F7"/>
</linearGradient>
<linearGradient id="paint2_linear_132_891" x1="23.1416" y1="19.9139" x2="11.575" y2="28.1607" gradientUnits="userSpaceOnUse">
<stop stop-color="#30116E" stop-opacity="0"/>
<stop offset="0.164241" stop-color="#30116E" stop-opacity="0.7"/>
<stop offset="0.712141" stop-color="#30116E"/>
<stop offset="1" stop-color="#30116E" stop-opacity="0"/>
</linearGradient>
<linearGradient id="paint3_linear_132_891" x1="8.94099" y1="5.26215" x2="26.5693" y2="39.5766" gradientUnits="userSpaceOnUse">
<stop offset="0.0374343" stop-color="#FFBAC7"/>
<stop offset="0.187907" stop-color="#EA71EF"/>
<stop offset="0.349289" stop-color="#CA59F7"/>
<stop offset="0.618324" stop-color="#8B52F4"/>
<stop offset="1" stop-color="#5750E2"/>
</linearGradient>
<radialGradient id="paint4_radial_132_891" cx="0" cy="0" r="1" gradientTransform="matrix(31.5073 12.6982 -28.7956 72.0874 1.85441 21.6721)" gradientUnits="userSpaceOnUse">
<stop offset="0.611142" stop-color="#8B52F4" stop-opacity="0"/>
<stop offset="0.977982" stop-color="#30116E"/>
</radialGradient>
<linearGradient id="paint5_linear_132_891" x1="32.5102" y1="2.49585" x2="32.5102" y2="39.5429" gradientUnits="userSpaceOnUse">
<stop stop-color="#FFBAC7"/>
<stop offset="0.291496" stop-color="#EA71EF"/>
<stop offset="0.675458" stop-color="#8B52F4"/>
<stop offset="0.916582" stop-color="#5750E2"/>
</linearGradient>
</defs>
</svg>
